<svg width="80" height="80" viewBox="0 0 80 80" fill="none" xmlns="http://www.w3.org/2000/svg">
<path d="M2.5 27.6527C2.5 27.0335 2.72981 26.4363 3.14491 25.9768L21.2989 5.88164C22.3074 4.76529 24.0663 4.78607 25.0481 5.92593L42.2996 25.9536C42.6904 26.4073 42.9054 26.9863 42.9054 27.5852V63.6096C42.9054 64.9904 41.7861 66.1096 40.4054 66.1096H5C3.61929 66.1096 2.5 64.9903 2.5 63.6096V27.6527Z" fill="#8AC03B" stroke="#8AC03B" stroke-width="5"/>
<path d="M38.9336 51.9524H75.6633V75.0001C75.6633 76.9331 74.0963 78.5001 72.1633 78.5001H42.4336C40.5006 78.5001 38.9336 76.9331 38.9336 75.0001V51.9524Z" fill="#111B2B" stroke="#8AC03B" stroke-width="3"/>
<rect x="36.0938" y="46.3242" width="42.4054" height="5.4422" fill="#111B2B" stroke="#8AC03B" stroke-width="3"/>
<rect x="54.5391" y="46.3242" width="6.93243" height="32.1758" fill="#111B2B" stroke="#8AC03B" stroke-width="3"/>
<path d="M47.2981 41.9686C46.0924 37.9034 50.0655 33.4687 54.1206 34.0506C58.1757 34.6325 59.4886 45.448 59.4886 45.448C59.4886 45.448 48.5038 46.0338 47.2981 41.9686Z" fill="#8AC03B"/>
<path d="M68.6121 41.9233C69.8178 37.8581 65.8447 33.4234 61.7896 34.0053C57.7344 34.5873 56.4215 45.4028 56.4215 45.4028C56.4215 45.4028 67.4064 45.9885 68.6121 41.9233Z" fill="#8AC03B"/>
<path d="M10.9336 32.0312C10.9336 30.3125 11.487 28.9062 12.5938 27.8125C13.7005 26.7057 15.1523 26.1523 16.9492 26.1523C18.7721 26.1523 20.2305 26.7057 21.3242 27.8125C22.431 28.9062 22.9844 30.3451 22.9844 32.1289V33.5352C22.9844 35.2409 22.431 36.6406 21.3242 37.7344C20.2305 38.8281 18.7852 39.375 16.9883 39.375C15.2305 39.375 13.7786 38.8411 12.6328 37.7734C11.5 36.6927 10.9336 35.2409 10.9336 33.418V32.0312ZM14.2539 33.5352C14.2539 34.4336 14.5013 35.1628 14.9961 35.7227C15.5039 36.2695 16.168 36.543 16.9883 36.543C17.7956 36.543 18.4466 36.2695 18.9414 35.7227C19.4362 35.1628 19.6836 34.4076 19.6836 33.457V32.0312C19.6836 31.1328 19.4297 30.4036 18.9219 29.8438C18.4271 29.2839 17.7695 29.0039 16.9492 29.0039C16.1289 29.0039 15.4714 29.2904 14.9766 29.8633C14.4948 30.4232 14.2539 31.1654 14.2539 32.0898V33.5352ZM24.6055 48.0273C24.6055 46.2826 25.1719 44.8698 26.3047 43.7891C27.4375 42.7083 28.8828 42.168 30.6406 42.168C32.4115 42.168 33.8568 42.7083 34.9766 43.7891C36.1094 44.8698 36.6758 46.3281 36.6758 48.1641V49.5508C36.6758 51.2435 36.1289 52.6432 35.0352 53.75C33.9544 54.8438 32.5026 55.3906 30.6797 55.3906C28.8568 55.3906 27.3854 54.8503 26.2656 53.7695C25.1589 52.6758 24.6055 51.237 24.6055 49.4531V48.0273ZM27.9258 49.5508C27.9258 50.4362 28.1797 51.1654 28.6875 51.7383C29.2083 52.2982 29.8724 52.5781 30.6797 52.5781C31.513 52.5781 32.1641 52.3112 32.6328 51.7773C33.1146 51.2305 33.3555 50.4688 33.3555 49.4922V48.0273C33.3555 47.1159 33.1016 46.3867 32.5938 45.8398C32.0859 45.293 31.4349 45.0195 30.6406 45.0195C29.8333 45.0195 29.1758 45.293 28.668 45.8398C28.1732 46.3867 27.9258 47.1419 27.9258 48.1055V49.5508ZM17.9648 52.8711L15.5234 51.4648L29.4102 29.2383L31.8516 30.6445L17.9648 52.8711Z" fill="#111B2B"/>
<circle cx="22.5" cy="14.5" r="3.5" fill="#111B2B"/>
</svg>
