<svg width="84" height="84" viewBox="0 0 84 84" fill="none" xmlns="http://www.w3.org/2000/svg">
<circle cx="40.5" cy="44.5" r="37.5" fill="#8AC03B"/>
<mask id="path-2-outside-1" maskUnits="userSpaceOnUse" x="36" y="0" width="48" height="48" fill="black">
<rect fill="white" x="36" width="48" height="48"/>
<path d="M80 44C80 38.7471 78.9654 33.5457 76.9552 28.6927C74.945 23.8396 71.9986 19.4301 68.2843 15.7157C64.5699 12.0014 60.1604 9.05501 55.3073 7.04482C50.4543 5.03463 45.2529 4 40 4V44H80Z"/>
</mask>
<path d="M80 44C80 38.7471 78.9654 33.5457 76.9552 28.6927C74.945 23.8396 71.9986 19.4301 68.2843 15.7157C64.5699 12.0014 60.1604 9.05501 55.3073 7.04482C50.4543 5.03463 45.2529 4 40 4V44H80Z" fill="#8AC03B"/>
<path d="M80 44C80 38.7471 78.9654 33.5457 76.9552 28.6927C74.945 23.8396 71.9986 19.4301 68.2843 15.7157C64.5699 12.0014 60.1604 9.05501 55.3073 7.04482C50.4543 5.03463 45.2529 4 40 4V44H80Z" stroke="#111B2B" stroke-width="8" mask="url(#path-2-outside-1)"/>
<path d="M24.4219 58.6759C24.4219 58.0118 24.2109 57.465 23.7891 57.0353C23.3672 56.5978 22.6641 56.2072 21.6797 55.8634C20.6953 55.5118 19.9297 55.1876 19.3828 54.8907C17.5625 53.9142 16.6523 52.4689 16.6523 50.5548C16.6523 49.2579 17.0469 48.1915 17.8359 47.3556C18.625 46.5197 19.6953 46.0236 21.0469 45.8673V43.3126H22.9219V45.8907C24.2813 46.0861 25.332 46.6642 26.0742 47.6251C26.8164 48.5782 27.1875 49.8204 27.1875 51.3517H24.3516C24.3516 50.3673 24.1289 49.5939 23.6836 49.0314C23.2461 48.4611 22.6484 48.1759 21.8906 48.1759C21.1406 48.1759 20.5547 48.379 20.1328 48.7853C19.7109 49.1915 19.5 49.7736 19.5 50.5314C19.5 51.2111 19.707 51.7579 20.1211 52.172C20.543 52.5782 21.2539 52.965 22.2539 53.3322C23.2539 53.6993 24.0391 54.0392 24.6094 54.3517C25.1797 54.6642 25.6602 55.0236 26.0508 55.4298C26.4414 55.8282 26.7422 56.2892 26.9531 56.8126C27.1641 57.3361 27.2695 57.9493 27.2695 58.6525C27.2695 59.9728 26.8633 61.0431 26.0508 61.8634C25.2461 62.6837 24.1211 63.1681 22.6758 63.3165V65.6017H20.8125V63.3282C19.2656 63.1564 18.0742 62.6017 17.2383 61.6642C16.4102 60.7267 15.9961 59.4845 15.9961 57.9376H18.8438C18.8438 58.922 19.0898 59.6837 19.582 60.2228C20.082 60.7618 20.7852 61.0314 21.6914 61.0314C22.582 61.0314 23.2578 60.8165 23.7188 60.3868C24.1875 59.9572 24.4219 59.3868 24.4219 58.6759Z" fill="#111B2B"/>
<path d="M53.1602 20.2188C53.1602 19.1875 53.4922 18.3438 54.1562 17.6875C54.8203 17.0234 55.6914 16.6914 56.7695 16.6914C57.8633 16.6914 58.7383 17.0234 59.3945 17.6875C60.0586 18.3438 60.3906 19.207 60.3906 20.2773V21.1211C60.3906 22.1445 60.0586 22.9844 59.3945 23.6406C58.7383 24.2969 57.8711 24.625 56.793 24.625C55.7383 24.625 54.8672 24.3047 54.1797 23.6641C53.5 23.0156 53.1602 22.1445 53.1602 21.0508V20.2188ZM55.1523 21.1211C55.1523 21.6602 55.3008 22.0977 55.5977 22.4336C55.9023 22.7617 56.3008 22.9258 56.793 22.9258C57.2773 22.9258 57.668 22.7617 57.9648 22.4336C58.2617 22.0977 58.4102 21.6445 58.4102 21.0742V20.2188C58.4102 19.6797 58.2578 19.2422 57.9531 18.9062C57.6562 18.5703 57.2617 18.4023 56.7695 18.4023C56.2773 18.4023 55.8828 18.5742 55.5859 18.918C55.2969 19.2539 55.1523 19.6992 55.1523 20.2539V21.1211ZM61.3633 29.8164C61.3633 28.7695 61.7031 27.9219 62.3828 27.2734C63.0625 26.625 63.9297 26.3008 64.9844 26.3008C66.0469 26.3008 66.9141 26.625 67.5859 27.2734C68.2656 27.9219 68.6055 28.7969 68.6055 29.8984V30.7305C68.6055 31.7461 68.2773 32.5859 67.6211 33.25C66.9727 33.9062 66.1016 34.2344 65.0078 34.2344C63.9141 34.2344 63.0312 33.9102 62.3594 33.2617C61.6953 32.6055 61.3633 31.7422 61.3633 30.6719V29.8164ZM63.3555 30.7305C63.3555 31.2617 63.5078 31.6992 63.8125 32.043C64.125 32.3789 64.5234 32.5469 65.0078 32.5469C65.5078 32.5469 65.8984 32.3867 66.1797 32.0664C66.4688 31.7383 66.6133 31.2812 66.6133 30.6953V29.8164C66.6133 29.2695 66.4609 28.832 66.1562 28.5039C65.8516 28.1758 65.4609 28.0117 64.9844 28.0117C64.5 28.0117 64.1055 28.1758 63.8008 28.5039C63.5039 28.832 63.3555 29.2852 63.3555 29.8633V30.7305ZM57.3789 32.7227L55.9141 31.8789L64.2461 18.543L65.7109 19.3867L57.3789 32.7227Z" fill="#111B2B"/>
</svg>
