<svg width="80" height="80" viewBox="0 0 80 80" fill="none" xmlns="http://www.w3.org/2000/svg">
<path d="M53.1241 67.5H2.87921C6.17863 43.7058 6.3809 28.5405 2.86841 2.5H39.0674L45.8537 8.38144L45.8627 8.38922L53.1863 14.7974C56.7426 35.7029 56.1249 47.2746 53.1241 67.5Z" stroke="#8AC03B" stroke-width="5"/>
<path d="M38 0L55.5 16H38V0Z" fill="#8AC03B"/>
<circle cx="59.5" cy="59.5" r="20.5" fill="#8AC03B"/>
<path d="M61.44 50.72C60.32 50.72 59.48 50.4667 58.92 49.96C58.36 49.4267 58.08 48.6933 58.08 47.76C58.08 46.8267 58.44 46.0533 59.16 45.44C59.9067 44.8 60.8267 44.48 61.92 44.48C62.9067 44.48 63.7067 44.72 64.32 45.2C64.9333 45.68 65.24 46.36 65.24 47.24C65.24 48.3067 64.8933 49.16 64.2 49.8C63.5067 50.4133 62.5867 50.72 61.44 50.72ZM57.6 72.2C56.7467 72.2 56.16 72.0267 55.84 71.68C55.52 71.3333 55.36 70.7867 55.36 70.04C55.36 69.8267 55.3867 69.4533 55.44 68.92C55.8667 64.04 56.5733 59.6 57.56 55.6C57.7733 54.7733 58.12 54.2 58.6 53.88C59.1067 53.5333 59.9067 53.36 61 53.36C62.1467 53.36 62.72 53.8267 62.72 54.76C62.72 54.8933 62.6933 55.1467 62.64 55.52C61.44 61.2267 60.72 66.0133 60.48 69.88C60.4267 70.7333 60.1733 71.3333 59.72 71.68C59.2667 72.0267 58.56 72.2 57.6 72.2Z" fill="white"/>
<rect x="14" y="19" width="31" height="3" rx="1.5" fill="#8AC03B"/>
<rect x="14" y="28" width="31" height="3" rx="1.5" fill="#8AC03B"/>
<rect x="14" y="37" width="31" height="3" rx="1.5" fill="#8AC03B"/>
</svg>
