<svg width="80" height="80" viewBox="0 0 80 80" fill="none" xmlns="http://www.w3.org/2000/svg">
<path d="M53.1241 67.5H2.87921C6.17863 43.7058 6.3809 28.5405 2.86841 2.5H39.0674L45.8537 8.38144L45.8627 8.38922L53.1863 14.7974C56.7426 35.7029 56.1249 47.2746 53.1241 67.5Z" stroke="#8AC03B" stroke-width="5"/>
<path d="M38 0L55.5 16H38V0Z" fill="#8AC03B"/>
<rect x="14" y="19" width="31" height="3" rx="1.5" fill="#8AC03B"/>
<rect x="14" y="28" width="31" height="3" rx="1.5" fill="#8AC03B"/>
<rect x="14" y="37" width="31" height="3" rx="1.5" fill="#8AC03B"/>
<rect x="30" y="43" width="50" height="37" rx="5" fill="#8AC03B"/>
<path d="M31.2749 52.7015L31.2573 56.0913L26.8279 50.4594L31.2749 52.7015Z" fill="#8AC03B" stroke="#8AC03B"/>
<path d="M48.458 51.51C48.83 51.162 49.238 50.832 49.682 50.52C50.138 50.208 50.63 49.932 51.158 49.692C51.698 49.452 52.274 49.266 52.886 49.134C53.51 48.99 54.182 48.918 54.902 48.918C55.85 48.918 56.726 49.056 57.53 49.332C58.346 49.608 59.048 49.998 59.636 50.502C60.224 51.006 60.686 51.618 61.022 52.338C61.358 53.058 61.526 53.868 61.526 54.768C61.526 55.68 61.388 56.466 61.112 57.126C60.848 57.786 60.506 58.368 60.086 58.872C59.678 59.364 59.228 59.796 58.736 60.168C58.256 60.528 57.8 60.87 57.368 61.194C56.936 61.518 56.564 61.842 56.252 62.166C55.952 62.49 55.778 62.85 55.73 63.246L55.406 66H53.21L52.994 63.012C52.946 62.472 53.048 62.004 53.3 61.608C53.552 61.2 53.882 60.822 54.29 60.474C54.698 60.114 55.148 59.766 55.64 59.43C56.132 59.082 56.588 58.698 57.008 58.278C57.44 57.858 57.8 57.384 58.088 56.856C58.376 56.316 58.52 55.674 58.52 54.93C58.52 54.414 58.418 53.946 58.214 53.526C58.01 53.106 57.734 52.752 57.386 52.464C57.038 52.164 56.624 51.936 56.144 51.78C55.676 51.624 55.172 51.546 54.632 51.546C53.9 51.546 53.27 51.636 52.742 51.816C52.226 51.996 51.788 52.194 51.428 52.41C51.068 52.626 50.774 52.824 50.546 53.004C50.33 53.184 50.15 53.274 50.006 53.274C49.706 53.274 49.472 53.136 49.304 52.86L48.458 51.51ZM51.968 73.02C51.968 72.708 52.022 72.414 52.13 72.138C52.25 71.862 52.406 71.622 52.598 71.418C52.802 71.214 53.042 71.052 53.318 70.932C53.594 70.812 53.888 70.752 54.2 70.752C54.512 70.752 54.806 70.812 55.082 70.932C55.358 71.052 55.598 71.214 55.802 71.418C56.006 71.622 56.168 71.862 56.288 72.138C56.408 72.414 56.468 72.708 56.468 73.02C56.468 73.344 56.408 73.644 56.288 73.92C56.168 74.184 56.006 74.418 55.802 74.622C55.598 74.826 55.358 74.982 55.082 75.09C54.806 75.21 54.512 75.27 54.2 75.27C53.888 75.27 53.594 75.21 53.318 75.09C53.042 74.982 52.802 74.826 52.598 74.622C52.406 74.418 52.25 74.184 52.13 73.92C52.022 73.644 51.968 73.344 51.968 73.02Z" fill="white"/>
<path d="M48.458 51.51L47.7748 50.7797L47.173 51.3427L47.6106 52.041L48.458 51.51ZM49.682 50.52L49.1173 49.6946L49.1071 49.7018L49.682 50.52ZM51.158 49.692L50.7518 48.7782L50.7442 48.7816L51.158 49.692ZM52.886 49.134L53.0968 50.1115L53.1039 50.11L53.1109 50.1084L52.886 49.134ZM57.53 49.332L57.2053 50.2778L57.2096 50.2793L57.53 49.332ZM59.636 50.502L58.9852 51.2613V51.2613L59.636 50.502ZM61.022 52.338L61.9282 51.9151L61.9282 51.9151L61.022 52.338ZM61.112 57.126L60.1894 56.7402L60.1864 56.7474L60.1835 56.7546L61.112 57.126ZM60.086 58.872L59.3178 58.2318L59.3162 58.2337L60.086 58.872ZM58.736 60.168L59.336 60.968L59.3391 60.9657L58.736 60.168ZM56.252 62.166L55.5317 61.4724L55.5249 61.4794L55.5182 61.4866L56.252 62.166ZM55.73 63.246L54.7373 63.1257L54.7368 63.1292L55.73 63.246ZM55.406 66V67H56.2952L56.3992 66.1168L55.406 66ZM53.21 66L52.2126 66.0721L52.2797 67H53.21V66ZM52.994 63.012L53.9914 62.9399L53.9908 62.9317L53.9901 62.9235L52.994 63.012ZM53.3 61.608L54.1437 62.1449L54.1508 62.1335L53.3 61.608ZM54.29 60.474L54.9389 61.2348L54.9453 61.2294L54.9516 61.2238L54.29 60.474ZM55.64 59.43L56.204 60.2558L56.2108 60.2512L56.2175 60.2464L55.64 59.43ZM57.008 58.278L56.3109 57.5609L56.3009 57.5709L57.008 58.278ZM58.088 56.856L58.9659 57.3349L58.9704 57.3266L58.088 56.856ZM57.386 52.464L56.7331 53.2214L56.7407 53.228L56.7484 53.2344L57.386 52.464ZM56.144 51.78L55.8278 52.7287L55.8349 52.731L56.144 51.78ZM52.742 51.816L52.4193 50.8695L52.4126 50.8718L52.742 51.816ZM51.428 52.41L50.9135 51.5525L50.9135 51.5525L51.428 52.41ZM50.546 53.004L49.9264 52.2191L49.916 52.2273L49.9058 52.2358L50.546 53.004ZM49.304 52.86L50.1583 52.34L50.1514 52.329L49.304 52.86ZM52.13 72.138L51.2129 71.7393L51.2055 71.7563L51.1988 71.7736L52.13 72.138ZM52.598 71.418L51.8909 70.7109L51.8802 70.7216L51.8698 70.7326L52.598 71.418ZM55.802 71.418L55.0949 72.1251L55.802 71.418ZM56.288 73.92L57.1984 74.3338L57.2018 74.3263L57.2051 74.3187L56.288 73.92ZM55.802 74.622L55.0949 73.9149L55.0949 73.9149L55.802 74.622ZM55.082 75.09L54.7176 74.1588L54.7003 74.1655L54.6833 74.1729L55.082 75.09ZM53.318 75.09L53.7167 74.1729L53.6997 74.1655L53.6824 74.1588L53.318 75.09ZM52.598 74.622L51.8698 75.3074L51.8802 75.3184L51.8909 75.3291L52.598 74.622ZM52.13 73.92L51.1988 74.2844L51.2085 74.3094L51.2196 74.3338L52.13 73.92ZM49.1412 52.2403C49.4771 51.926 49.8486 51.6252 50.2569 51.3382L49.1071 49.7018C48.6274 50.0388 48.1829 50.398 47.7748 50.7797L49.1412 52.2403ZM50.2467 51.3453C50.6526 51.0675 51.0939 50.8196 51.5718 50.6024L50.7442 48.7816C50.1661 49.0444 49.6234 49.3485 49.1173 49.6947L50.2467 51.3453ZM51.5641 50.6058C52.0378 50.3953 52.548 50.2299 53.0968 50.1115L52.6752 48.1565C52 48.3021 51.3582 48.5087 50.7519 48.7782L51.5641 50.6058ZM53.1109 50.1084C53.6527 49.9834 54.2485 49.918 54.902 49.918V47.918C54.1155 47.918 53.3673 47.9966 52.6611 48.1596L53.1109 50.1084ZM54.902 49.918C55.7521 49.918 56.5171 50.0416 57.2053 50.2778L57.8547 48.3862C56.9349 48.0704 55.9479 47.918 54.902 47.918V49.918ZM57.2096 50.2793C57.9181 50.5189 58.5046 50.8493 58.9852 51.2613L60.2868 49.7427C59.5914 49.1467 58.774 48.6971 57.8504 48.3847L57.2096 50.2793ZM58.9852 51.2613C59.4623 51.6702 59.8384 52.1665 60.1158 52.7609L61.9282 51.9151C61.5336 51.0695 60.9857 50.3418 60.2868 49.7427L58.9852 51.2613ZM60.1158 52.7609C60.3823 53.3319 60.526 53.9947 60.526 54.768H62.526C62.526 53.7413 62.3337 52.7841 61.9282 51.9151L60.1158 52.7609ZM60.526 54.768C60.526 55.5825 60.4024 56.231 60.1894 56.7402L62.0346 57.5118C62.3736 56.701 62.526 55.7775 62.526 54.768H60.526ZM60.1835 56.7546C59.9553 57.3253 59.6652 57.8149 59.3178 58.2318L60.8542 59.5122C61.3468 58.9211 61.7407 58.2467 62.0405 57.4974L60.1835 56.7546ZM59.3162 58.2337C58.9557 58.6685 58.5612 59.0465 58.1329 59.3703L59.3391 60.9657C59.8948 60.5455 60.4003 60.0595 60.8558 59.5103L59.3162 58.2337ZM58.136 59.368C57.656 59.728 57.2 60.07 56.768 60.394L57.968 61.994C58.4 61.67 58.856 61.328 59.336 60.968L58.136 59.368ZM56.768 60.394C56.3013 60.744 55.8874 61.103 55.5317 61.4724L56.9723 62.8596C57.2406 62.581 57.5707 62.292 57.968 61.994L56.768 60.394ZM55.5182 61.4866C55.0913 61.9477 54.8133 62.4984 54.7373 63.1257L56.7227 63.3663C56.7427 63.2016 56.8127 63.0323 56.9858 62.8454L55.5182 61.4866ZM54.7368 63.1292L54.4128 65.8832L56.3992 66.1168L56.7232 63.3628L54.7368 63.1292ZM55.406 65H53.21V67H55.406V65ZM54.2074 65.9279L53.9914 62.9399L51.9966 63.0841L52.2126 66.0721L54.2074 65.9279ZM53.9901 62.9235C53.9584 62.5675 54.0278 62.3269 54.1437 62.1449L52.4563 61.0711C52.0682 61.6811 51.9336 62.3765 51.9979 63.1005L53.9901 62.9235ZM54.1508 62.1335C54.3421 61.8237 54.6008 61.5232 54.9389 61.2348L53.6411 59.7132C53.1632 60.1208 52.7619 60.5763 52.4492 61.0825L54.1508 62.1335ZM54.9516 61.2238C55.3259 60.8936 55.7429 60.5707 56.204 60.2558L55.076 58.6042C54.5531 58.9613 54.0701 59.3344 53.6284 59.7242L54.9516 61.2238ZM56.2175 60.2464C56.755 59.8662 57.2545 59.4457 57.7151 58.9851L56.3009 57.5709C55.9215 57.9503 55.509 58.2978 55.0625 58.6136L56.2175 60.2464ZM57.7051 58.995C58.2088 58.5053 58.6298 57.951 58.9659 57.3349L57.2101 56.3771C56.9702 56.817 56.6712 57.2107 56.3109 57.561L57.7051 58.995ZM58.9704 57.3266C59.3506 56.6137 59.52 55.8031 59.52 54.93H57.52C57.52 55.5449 57.4014 56.0183 57.2056 56.3854L58.9704 57.3266ZM59.52 54.93C59.52 54.2787 59.3903 53.659 59.1135 53.0891L57.3145 53.9629C57.4457 54.233 57.52 54.5493 57.52 54.93H59.52ZM59.1135 53.0891C58.8492 52.5449 58.4855 52.0759 58.0236 51.6936L56.7484 53.2344C56.9825 53.4281 57.1708 53.6671 57.3145 53.9629L59.1135 53.0891ZM58.0389 51.7066C57.5808 51.3117 57.0469 51.022 56.4531 50.829L55.8349 52.731C56.2011 52.85 56.4952 53.0163 56.7331 53.2214L58.0389 51.7066ZM56.4602 50.8313C55.8811 50.6383 55.2694 50.546 54.632 50.546V52.546C55.0746 52.546 55.4709 52.6097 55.8278 52.7287L56.4602 50.8313ZM54.632 50.546C53.8225 50.546 53.0779 50.645 52.4193 50.8695L53.0647 52.7625C53.4621 52.627 53.9775 52.546 54.632 52.546V50.546ZM52.4126 50.8718C51.8503 51.068 51.3466 51.2927 50.9135 51.5525L51.9425 53.2675C52.2294 53.0953 52.6017 52.924 53.0714 52.7602L52.4126 50.8718ZM50.9135 51.5525C50.5315 51.7817 50.1989 52.0039 49.9264 52.2191L51.1656 53.7889C51.3491 53.6441 51.6045 53.4703 51.9425 53.2675L50.9135 51.5525ZM49.9058 52.2358C49.8724 52.2636 49.8463 52.283 49.8274 52.2959C49.8083 52.3089 49.7999 52.313 49.8018 52.3121C49.8034 52.3112 49.821 52.3025 49.8531 52.2936C49.8856 52.2846 49.9379 52.274 50.006 52.274V54.274C50.522 54.274 50.9372 53.9797 51.1862 53.7722L49.9058 52.2358ZM50.006 52.274C50.0081 52.274 50.0218 52.2743 50.0436 52.2799C50.0659 52.2857 50.0903 52.2954 50.1135 52.3091C50.1628 52.3382 50.1728 52.364 50.1582 52.3401L48.4498 53.3799C48.7824 53.9263 49.3257 54.274 50.006 54.274V52.274ZM50.1514 52.329L49.3054 50.979L47.6106 52.041L48.4566 53.391L50.1514 52.329ZM52.968 73.02C52.968 72.826 53.001 72.6562 53.0612 72.5024L51.1988 71.7736C51.043 72.1718 50.968 72.59 50.968 73.02H52.968ZM53.0471 72.5367C53.1245 72.3586 53.2189 72.2174 53.3262 72.1034L51.8698 70.7326C51.5931 71.0266 51.3755 71.3654 51.2129 71.7393L53.0471 72.5367ZM53.3051 72.1251C53.4166 72.0136 53.5507 71.9212 53.7167 71.8491L52.9193 70.0149C52.5333 70.1828 52.1874 70.4144 51.8909 70.7109L53.3051 72.1251ZM53.7167 71.8491C53.8623 71.7858 54.02 71.752 54.2 71.752V69.752C53.756 69.752 53.3257 69.8382 52.9193 70.0149L53.7167 71.8491ZM54.2 71.752C54.38 71.752 54.5377 71.7858 54.6833 71.8491L55.4807 70.0149C55.0743 69.8382 54.644 69.752 54.2 69.752V71.752ZM54.6833 71.8491C54.8493 71.9212 54.9834 72.0136 55.0949 72.1251L56.5091 70.7109C56.2126 70.4144 55.8667 70.1828 55.4807 70.0149L54.6833 71.8491ZM55.0949 72.1251C55.2064 72.2366 55.2988 72.3707 55.3709 72.5367L57.2051 71.7393C57.0372 71.3533 56.8056 71.0074 56.5091 70.7109L55.0949 72.1251ZM55.3709 72.5367C55.4342 72.6823 55.468 72.84 55.468 73.02H57.468C57.468 72.576 57.3818 72.1457 57.2051 71.7393L55.3709 72.5367ZM55.468 73.02C55.468 73.2174 55.4321 73.3805 55.3709 73.5213L57.2051 74.3187C57.3839 73.9075 57.468 73.4706 57.468 73.02H55.468ZM55.3776 73.5062C55.307 73.6616 55.2137 73.7961 55.0949 73.9149L56.5091 75.3291C56.7983 75.0399 57.029 74.7064 57.1984 74.3338L55.3776 73.5062ZM55.0949 73.9149C54.9911 74.0186 54.8687 74.0996 54.7176 74.1588L55.4464 76.0212C55.8473 75.8644 56.2049 75.6334 56.5091 75.3291L55.0949 73.9149ZM54.6833 74.1729C54.5377 74.2362 54.38 74.27 54.2 74.27V76.27C54.644 76.27 55.0743 76.1838 55.4807 76.0071L54.6833 74.1729ZM54.2 74.27C54.02 74.27 53.8623 74.2362 53.7167 74.1729L52.9193 76.0071C53.3257 76.1838 53.756 76.27 54.2 76.27V74.27ZM53.6824 74.1588C53.5313 74.0996 53.4089 74.0186 53.3051 73.9149L51.8909 75.3291C52.1951 75.6334 52.5527 75.8644 52.9536 76.0212L53.6824 74.1588ZM53.3262 73.9366C53.212 73.8153 53.1166 73.6738 53.0404 73.5062L51.2196 74.3338C51.3834 74.6942 51.6 75.0207 51.8698 75.3074L53.3262 73.9366ZM53.0612 73.5556C53.0027 73.4061 52.968 73.231 52.968 73.02H50.968C50.968 73.457 51.0413 73.8819 51.1988 74.2844L53.0612 73.5556Z" fill="white"/>
</svg>
