<svg width="80" height="80" viewBox="0 0 80 80" fill="none" xmlns="http://www.w3.org/2000/svg">
<path d="M10.6801 31.4436L40.835 24.477L68.6996 31.7911L40.8941 40.418L10.6801 31.4436Z" stroke="#8AC03B" stroke-width="5"/>
<path d="M6.5548 61.7162L6.5548 34.5025L37.6277 42.8842L37.6277 71.164L6.5548 61.7162Z" stroke="#8AC03B" stroke-width="5"/>
<path d="M41.6146 42.8243L72.5097 34.8126L72.5097 62.1799L41.6146 71.2457L41.6146 42.8243Z" stroke="#8AC03B" stroke-width="5"/>
<rect width="10.9176" height="33.6272" transform="matrix(0.449259 0.893402 -0.955365 0.295428 75.0938 32.0916)" fill="#8AC03B"/>
<rect width="10.8344" height="33.6301" transform="matrix(-0.406076 0.913839 -0.964634 -0.263592 36.8398 41.2285)" fill="#8AC03B"/>
<path d="M37.5387 9.66469C37.972 7.52806 41.0255 7.52806 41.4589 9.66469L41.6585 10.6489C41.9629 12.1498 43.7721 12.7657 44.929 11.7623L45.6916 11.1009C47.3595 9.65427 49.7965 11.5796 48.7752 13.537L48.6919 13.6966C47.9476 15.123 49.1065 16.7996 50.7039 16.6075L51.1175 16.5577C53.2976 16.2954 54.1868 19.273 52.2199 20.2492C50.7724 20.9676 50.7724 23.0324 52.2199 23.7508C54.1868 24.727 53.2976 27.7046 51.1175 27.4423L50.7039 27.3925C49.1065 27.2004 47.9476 28.877 48.6919 30.3034L48.7752 30.463C49.7965 32.4204 47.3595 34.3457 45.6916 32.8991L44.929 32.2377C43.7721 31.2343 41.9629 31.8502 41.6585 33.3511L41.4589 34.3353C41.0255 36.4719 37.972 36.4719 37.5387 34.3353L37.3391 33.3511C37.0347 31.8502 35.2254 31.2343 34.0685 32.2377L33.3059 32.8991C31.638 34.3457 29.201 32.4204 30.2224 30.463L30.3057 30.3034C31.0499 28.877 29.891 27.2004 28.2936 27.3925L27.88 27.4423C25.6999 27.7046 24.8107 24.727 26.7776 23.7508C28.2251 23.0324 28.2251 20.9676 26.7776 20.2492C24.8107 19.273 25.6999 16.2954 27.88 16.5577L28.2936 16.6075C29.891 16.7996 31.0499 15.123 30.3057 13.6966L30.2224 13.537C29.201 11.5796 31.638 9.65427 33.3059 11.1009L34.0685 11.7623C35.2254 12.7657 37.0347 12.1498 37.3391 10.6489L37.5387 9.66469Z" fill="#8AC03B"/>
<ellipse cx="39.499" cy="21.9999" rx="6.38567" ry="5.83673" fill="#111B2B"/>
</svg>
