<svg width="80" height="81" viewBox="0 0 80 81" fill="none" xmlns="http://www.w3.org/2000/svg">
<path d="M15.7454 60.0248L9.82365 54.113C9.53388 53.8238 9.44973 53.3871 9.61125 53.0109L18.3645 32.6212C18.6434 31.9717 19.4897 31.8086 19.9899 32.308L21.8543 34.1692C22.0418 34.3564 22.2959 34.4615 22.5608 34.4615H28.3131C28.4681 34.4615 28.621 34.4255 28.7597 34.3563L34.7396 31.3714C34.8783 31.3022 35.0312 31.2661 35.1862 31.2661H38.1514" stroke="#8AC03B" stroke-width="2"/>
<path d="M66.6473 59.4779L69.8929 50.1508C69.9414 50.0114 69.9258 49.8577 69.8503 49.7308L59.5767 32.4696C59.4722 32.2939 59.2713 32.1995 59.0694 32.2311L55.6091 32.7731L52.0517 33.3302C51.9017 33.3537 51.7492 33.3078 51.6371 33.2055L48.966 30.7686C48.8539 30.6663 48.7014 30.6204 48.5515 30.6439L46.2589 31.003L43.9078 31.3712C43.7924 31.3893 43.687 31.4472 43.6098 31.5349L30.6899 46.2275C30.5919 46.3391 30.5485 46.4884 30.5715 46.6351L30.9536 49.0664C30.9965 49.3392 31.2524 49.5257 31.5252 49.483L33.4445 49.1824C33.5211 49.1704 33.5938 49.1408 33.657 49.0958L44.8887 41.1035C45.0805 40.967 45.3417 40.9829 45.5157 41.1417L65.8381 59.6827C66.1033 59.9246 66.5294 59.8168 66.6473 59.4779Z" fill="#8AC03B" stroke="#111B2B" stroke-width="0.2"/>
<rect x="10.1602" y="25.4683" width="7.46174" height="25.5696" rx="3.73087" transform="rotate(23.417 10.1602 25.4683)" fill="#8AC03B"/>
<rect width="6.43629" height="11.978" rx="3.21814" transform="matrix(0.75088 0.660438 -0.661704 0.749765 21.0703 54.5463)" fill="#8AC03B"/>
<rect width="6.57894" height="11.978" rx="3.28947" transform="matrix(0.75088 0.660438 -0.661704 0.749765 42.1133 66.6736)" fill="#8AC03B"/>
<rect width="6.59359" height="14.1316" rx="3.2968" transform="matrix(0.75088 0.660438 -0.661704 0.749765 29.1641 57.1346)" fill="#8AC03B"/>
<rect width="6.57804" height="16.8393" rx="3.28902" transform="matrix(0.75088 0.660438 -0.661704 0.749765 37.8516 59.4482)" fill="#8AC03B"/>
<rect width="7.02861" height="24.5412" rx="3.51431" transform="matrix(0.86429 -0.502993 0.504272 0.863545 61.5508 28.4111)" fill="#8AC03B"/>
<path d="M63.7581 60.0252C63.7581 62.5816 63.7581 63.2206 63.7581 63.2206L60.5573 66.4161H57.3564L54.1556 63.2206L50.9548 60.0252L47.7539 56.8298" stroke="#8AC03B" stroke-width="2"/>
<path d="M50.9541 72.8068C50.9541 75.3631 50.9541 76.0022 50.9541 76.0022L47.7533 79.1976H44.5524L41.3516 76.0022" stroke="#8AC03B" stroke-width="2"/>
<path d="M57.3558 66.4155C57.3558 68.9718 57.3558 69.6109 57.3558 69.6109L54.1549 72.8063H50.9541L47.7533 69.6109L44.5524 66.4155L41.3516 63.2201" stroke="#8AC03B" stroke-width="2"/>
<rect x="17.4023" y="19.7456" width="46.2065" height="7.55537" rx="2" fill="#8AC03B"/>
<path d="M15.3906 2C15.3906 0.895431 16.2861 0 17.3906 0H46.5387C47.6433 0 48.5387 0.895431 48.5387 2V18.8884H17.3906C16.2861 18.8884 15.3906 17.993 15.3906 16.8884V2Z" fill="#8AC03B"/>
<rect x="49.1367" y="11.7109" width="12.4557" height="7.31927" fill="#8AC03B"/>
<path d="M50.1367 4.87219L57.2309 4.87219L60.5595 11.372L50.1367 11.372L50.1367 4.87219Z" stroke="#8AC03B" stroke-width="2"/>
<path d="M19.4102 3.65967H45.1251V15.3705H19.4102V3.65967Z" fill="#111B2B"/>
<path d="M28.4529 26.1751C28.4529 27.6521 27.1608 28.9528 25.4354 28.9528C23.7101 28.9528 22.418 27.6521 22.418 26.1751C22.418 24.6982 23.7101 23.3975 25.4354 23.3975C27.1608 23.3975 28.4529 24.6982 28.4529 26.1751Z" fill="#111B2B" stroke="#8AC03B" stroke-width="2"/>
<path d="M57.5857 26.1751C57.5857 27.6521 56.2936 28.9528 54.5682 28.9528C52.8429 28.9528 51.5508 27.6521 51.5508 26.1751C51.5508 24.6982 52.8429 23.3975 54.5682 23.3975C56.2936 23.3975 57.5857 24.6982 57.5857 26.1751Z" fill="#111B2B" stroke="#8AC03B" stroke-width="2"/>
</svg>
