<svg width="80" height="80" viewBox="0 0 80 80" fill="none" xmlns="http://www.w3.org/2000/svg">
<circle cx="28" cy="28" r="28" fill="#8AC03B"/>
<path d="M51.8292 58.1989L57.2817 52.5175L78.1811 72.5439C81.075 74.9528 74.3129 80.8041 72.7286 78.2253L51.8292 58.1989Z" fill="#8AC03B"/>
<rect width="7.92699" height="4.79938" transform="matrix(0.692419 -0.721495 0.722026 0.691866 47.0859 53.5974)" fill="#8AC03B"/>
<rect width="4.41077" height="4.38626" transform="matrix(0.692419 -0.721495 0.722026 0.691866 43.7969 48.2266)" fill="#8AC03B"/>
<path d="M40 28C40 30.3734 39.2962 32.6935 37.9776 34.6668C36.6591 36.6402 34.7849 38.1783 32.5922 39.0866C30.3995 39.9948 27.9867 40.2324 25.6589 39.7694C23.3311 39.3064 21.1929 38.1635 19.5147 36.4853C17.8365 34.8071 16.6936 32.6689 16.2306 30.3411C15.7676 28.0133 16.0052 25.6005 16.9134 23.4078C17.8217 21.2151 19.3598 19.3409 21.3332 18.0224C23.3065 16.7038 25.6266 16 28 16V28H40Z" fill="#111B2B"/>
<mask id="path-6-inside-1" fill="white">
<path d="M43 28C43 29.9698 42.612 31.9204 41.8582 33.7403C41.1044 35.5601 39.9995 37.2137 38.6066 38.6066L28 28H43Z"/>
</mask>
<path d="M43 28C43 29.9698 42.612 31.9204 41.8582 33.7403C41.1044 35.5601 39.9995 37.2137 38.6066 38.6066L28 28H43Z" fill="#111B2B" stroke="#8AC03B" stroke-width="2" mask="url(#path-6-inside-1)"/>
<rect x="29" y="15" width="3" height="13" fill="#111B2B"/>
<rect x="33" y="19" width="3" height="9" fill="#111B2B"/>
<rect x="37" y="23" width="3" height="5" fill="#111B2B"/>
</svg>
